<svg width="83" height="20" viewBox="0 0 83 20" fill="none" xmlns="http://www.w3.org/2000/svg">
<path d="M58.0206 4.65568C56.9624 4.47082 56.301 4.41788 55.4283 4.41788C50.3741 4.41788 48.0457 8.09522 48.0457 11.3494C48.0457 13.9152 48.9717 15.8201 51.5912 15.8201C53.8933 15.8201 55.9572 14.1797 57.0416 11.9574L58.0206 4.65568ZM43.0183 11.6665C43.0451 6.27014 47.2522 0.317501 56.0895 0.317501C58.5765 0.317501 60.8255 0.581945 63.524 1.08457L60.9578 19.6033H56.3804L56.8829 16.0585C55.5605 17.9893 53.3644 19.8413 50.2681 19.8413C46.1669 19.8413 43.0183 17.0105 43.0183 11.6665Z" fill="white"/>
<path d="M82.2646 1.21677L80.2007 5.89918C79.3011 5.31699 78.3218 4.94706 77.2369 4.94706C74.6707 4.94706 72.5274 6.93138 72.0249 10.6612L70.8077 19.6033H65.7539L68.3209 1.08455H73.0303L72.5803 4.4708C73.6122 2.24838 75.7286 0.158448 78.5338 0.158448C80.0152 0.158448 80.9942 0.449703 82.2646 1.21677Z" fill="white"/>
<path d="M0 16.1639L3.14863 13.1214C4.18061 14.5501 5.9269 15.9524 8.7846 15.9524C11.245 15.9524 12.2244 15.1059 12.2244 14.1535C12.2244 11.3227 2.56677 12.963 2.56677 6.45481C2.56677 2.51313 6.13848 6.41018e-07 10.8483 6.41018e-07C14.4204 6.41018e-07 16.5637 1.21681 18.4688 2.77754L15.9288 6.16392C14.5262 4.94709 12.727 4.04731 10.6104 4.04731C8.5992 4.04731 7.56752 4.78819 7.56752 5.74083C7.56752 8.46546 17.2516 6.90458 17.2516 13.3069C17.2516 17.2749 13.8117 20 8.4141 20C4.33925 20 1.82557 18.439 0 16.1639Z" fill="white"/>
<path d="M35.572 9.10032C35.572 6.5873 34.1168 4.57665 30.8886 4.57665C27.6078 4.57665 24.9358 7.19591 24.9358 10.979C24.9358 13.7301 26.523 15.5819 29.4863 15.5819C33.138 15.5819 35.572 12.8836 35.572 9.10032ZM19.9082 10.8201C19.9082 4.68252 25.2002 0.158483 31.1269 0.158483C37.5035 0.158483 40.5996 4.07414 40.5996 8.99436C40.5996 14.7621 36.4455 20 29.169 20C23.586 20 19.9082 16.2433 19.9082 10.8201Z" fill="white"/>
</svg>
