<svg width="1920" height="600" viewBox="0 0 1920 600" fill="none" xmlns="http://www.w3.org/2000/svg">
<path d="M1920 600H0V0H1920V600ZM253.191 67C143.268 67.0001 59.9064 125.655 59.9062 217.65C59.9062 369.548 285.308 331.265 285.309 397.332C285.309 419.561 262.45 439.317 205.026 439.317C138.33 439.317 97.573 406.589 73.4873 373.245L0 444.254C42.6074 497.354 101.275 533.786 196.379 533.786C322.356 533.786 402.64 470.183 402.64 377.574C402.64 228.148 176.621 264.578 176.62 200.987C176.62 178.753 200.699 161.461 247.639 161.461C297.038 161.461 339.031 182.461 371.768 210.861L431.049 131.826C386.585 95.3998 336.561 67 253.191 67ZM726.479 70.6992C588.156 70.6994 464.644 176.287 464.644 319.533C464.644 446.106 550.481 533.786 680.783 533.786C850.614 533.786 947.566 411.536 947.566 276.922C947.566 162.087 875.305 70.6992 726.479 70.6992ZM1309.09 74.4102C1102.84 74.4102 1004.64 213.341 1004.02 339.289C1004.02 464.013 1077.5 530.083 1173.22 530.083C1245.49 530.083 1296.74 486.859 1327.61 441.795L1315.88 524.527H1422.71L1482.61 92.3135C1419.63 80.5826 1367.14 74.4102 1309.09 74.4102ZM1832.92 70.6982C1767.45 70.6985 1718.06 119.476 1693.98 171.346L1704.48 92.3135H1594.56L1534.65 524.527H1652.6L1681.01 315.826C1692.74 228.774 1742.76 182.462 1802.66 182.462C1827.98 182.462 1850.83 191.096 1871.83 204.684L1920 95.3994C1890.35 77.4966 1867.5 70.6982 1832.92 70.6982ZM1293.66 170.11C1314.03 170.11 1329.46 171.346 1354.16 175.66L1331.31 346.079C1306 397.945 1257.83 436.229 1204.1 436.229C1142.97 436.229 1121.35 391.772 1121.35 331.888C1121.35 255.937 1175.7 170.11 1293.66 170.11ZM720.92 173.815C796.263 173.815 830.227 220.743 830.227 279.396C830.226 367.694 773.419 430.671 688.191 430.671C619.03 430.671 581.983 387.451 581.983 323.242C581.983 234.948 644.347 173.815 720.92 173.815Z" fill="#1A171A"/>
</svg>
